<svg width="21" height="21" viewBox="0 0 21 21" fill="none" xmlns="http://www.w3.org/2000/svg">
<path d="M6.82602 2.46701H8.69302C8.91394 2.46701 9.12582 2.55477 9.28204 2.71099C9.43825 2.86721 9.52602 3.07909 9.52602 3.30001C9.52602 3.52094 9.43825 3.73281 9.28204 3.88903C9.12582 4.04525 8.91394 4.13301 8.69302 4.13301H6.86002C6.14602 4.13301 5.66102 4.13401 5.28602 4.16501C4.92102 4.19501 4.73402 4.24901 4.60302 4.31501C4.29002 4.47501 4.03502 4.73001 3.87502 5.04301C3.80902 5.17301 3.75502 5.36101 3.72502 5.72601C3.69402 6.10101 3.69302 6.58601 3.69302 7.30001V14.3C3.69302 15.014 3.69402 15.5 3.72502 15.874C3.75502 16.24 3.80902 16.426 3.87502 16.557C4.03502 16.87 4.29002 17.125 4.60302 17.285C4.73302 17.351 4.92102 17.405 5.28602 17.435C5.66102 17.466 6.14602 17.467 6.86002 17.467H13.86C14.574 17.467 15.06 17.466 15.434 17.435C15.8 17.405 15.986 17.351 16.117 17.285C16.43 17.125 16.685 16.87 16.845 16.557C16.911 16.427 16.965 16.24 16.995 15.874C17.026 15.499 17.027 15.014 17.027 14.3V12.467C17.027 12.2461 17.1148 12.0342 17.271 11.878C17.4272 11.7218 17.6391 11.634 17.86 11.634C18.0809 11.634 18.2928 11.7218 18.449 11.878C18.6053 12.0342 18.693 12.2461 18.693 12.467V14.334C18.693 15.005 18.693 15.559 18.657 16.01C18.618 16.478 18.537 16.909 18.33 17.313C18.0104 17.9404 17.5004 18.4504 16.873 18.77C16.469 18.976 16.038 19.058 15.57 19.097C15.119 19.133 14.565 19.133 13.894 19.133H6.82602C6.15502 19.133 5.60102 19.133 5.15002 19.097C4.68202 19.058 4.25102 18.977 3.84702 18.77C3.21965 18.4504 2.7096 17.9404 2.39002 17.313C2.18402 16.909 2.10202 16.478 2.06402 16.01C2.02702 15.559 2.02702 15.005 2.02702 14.334V7.26601C2.02702 6.59501 2.02702 6.04101 2.06402 5.59001C2.10202 5.12201 2.18402 4.69101 2.39002 4.28701C2.71002 3.65901 3.22002 3.15001 3.84702 2.83001C4.25102 2.62401 4.68202 2.54201 5.15002 2.50401C5.60102 2.46701 6.15502 2.46701 6.82602 2.46701Z" fill="#171447"/>
<path d="M12.027 3.30001C12.027 2.84001 12.4 2.46701 12.86 2.46701H17.86C18.32 2.46701 18.693 2.84001 18.693 3.30001V8.30001C18.693 8.52094 18.6053 8.73281 18.449 8.88903C18.2928 9.04525 18.0809 9.13301 17.86 9.13301C17.6391 9.13301 17.4272 9.04525 17.271 8.88903C17.1148 8.73281 17.027 8.52094 17.027 8.30001V5.31201L10.949 11.389C10.7924 11.5431 10.5812 11.6291 10.3614 11.6282C10.1417 11.6273 9.93122 11.5396 9.77584 11.3842C9.62047 11.2288 9.53278 11.0183 9.53187 10.7986C9.53097 10.5789 9.61692 10.3677 9.77102 10.211L15.848 4.13301H12.86C12.6391 4.13301 12.4272 4.04525 12.271 3.88903C12.1148 3.73281 12.027 3.52094 12.027 3.30001Z" fill="#171447"/>
</svg>
