<svg width="45" height="45" viewBox="0 0 45 45" fill="none" xmlns="http://www.w3.org/2000/svg">
<path d="M45 22.5C45 34.9264 34.9264 45 22.5 45C10.0736 45 0 34.9264 0 22.5C0 10.0736 10.0736 0 22.5 0C34.9264 0 45 10.0736 45 22.5Z" fill="#00A1FF"/>
<path d="M23.5958 34.6512C23.2085 35.2767 22.3012 35.284 21.9039 34.6649L10.9652 17.6203C9.6838 15.6237 11.1175 13 13.49 13H22.7607V14.7341H17.1118H14.8606C13.2866 14.7341 12.3294 16.4682 13.1683 17.8L20.1936 28.954L16.5837 14.7341H18.7497L22.7607 32.1667L26.6782 14.7341H28.657L25.3813 28.954L31.8685 17.7353C32.6395 16.402 31.6774 14.7341 30.1372 14.7341H27.6676H22.7607V13H31.6143C33.9649 13 35.4024 15.5806 34.165 17.5792L23.5958 34.6512Z" fill="#FFFEFE"/>
</svg>
